%TF.GenerationSoftware,KiCad,Pcbnew,9.0.7*%
%TF.CreationDate,2026-01-21T23:08:40-06:00*%
%TF.ProjectId,ASTRA_Tracking_Antenna_V2,41535452-415f-4547-9261-636b696e675f,rev?*%
%TF.SameCoordinates,Original*%
%TF.FileFunction,Soldermask,Bot*%
%TF.FilePolarity,Negative*%
%FSLAX46Y46*%
G04 Gerber Fmt 4.6, Leading zero omitted, Abs format (unit mm)*
G04 Created by KiCad (PCBNEW 9.0.7) date 2026-01-21 23:08:40*
%MOMM*%
%LPD*%
G01*
G04 APERTURE LIST*
G04 Aperture macros list*
%AMRoundRect*
0 Rectangle with rounded corners*
0 $1 Rounding radius*
0 $2 $3 $4 $5 $6 $7 $8 $9 X,Y pos of 4 corners*
0 Add a 4 corners polygon primitive as box body*
4,1,4,$2,$3,$4,$5,$6,$7,$8,$9,$2,$3,0*
0 Add four circle primitives for the rounded corners*
1,1,$1+$1,$2,$3*
1,1,$1+$1,$4,$5*
1,1,$1+$1,$6,$7*
1,1,$1+$1,$8,$9*
0 Add four rect primitives between the rounded corners*
20,1,$1+$1,$2,$3,$4,$5,0*
20,1,$1+$1,$4,$5,$6,$7,0*
20,1,$1+$1,$6,$7,$8,$9,0*
20,1,$1+$1,$8,$9,$2,$3,0*%
G04 Aperture macros list end*
%ADD10C,1.700000*%
%ADD11C,6.000000*%
%ADD12C,5.600000*%
%ADD13C,1.524000*%
%ADD14RoundRect,0.250001X1.399999X-1.099999X1.399999X1.099999X-1.399999X1.099999X-1.399999X-1.099999X0*%
%ADD15O,3.300000X2.700000*%
%ADD16R,1.700000X1.700000*%
%ADD17O,1.700000X1.700000*%
%ADD18C,1.879600*%
%ADD19RoundRect,0.050800X0.889000X-0.889000X0.889000X0.889000X-0.889000X0.889000X-0.889000X-0.889000X0*%
%ADD20R,3.800000X3.800000*%
%ADD21C,4.000000*%
%ADD22RoundRect,1.500000X-1.500000X1.500000X-1.500000X-1.500000X1.500000X-1.500000X1.500000X1.500000X0*%
%ADD23R,1.524000X1.524000*%
%ADD24RoundRect,0.250001X1.099999X1.399999X-1.099999X1.399999X-1.099999X-1.399999X1.099999X-1.399999X0*%
%ADD25O,2.700000X3.300000*%
G04 APERTURE END LIST*
D10*
%TO.C,A1*%
X161084671Y-113710000D03*
X163624671Y-113710000D03*
X161084671Y-111170000D03*
X163624671Y-111170000D03*
X161084671Y-108630000D03*
X163624671Y-108630000D03*
X161084671Y-106090000D03*
X163624671Y-106090000D03*
X161084671Y-103550000D03*
X163624671Y-103550000D03*
X161084671Y-101010000D03*
X163624671Y-101010000D03*
X161084671Y-98470000D03*
X163624671Y-98470000D03*
X161084671Y-95930000D03*
X163624671Y-95930000D03*
X161084671Y-93390000D03*
X163624671Y-93390000D03*
X161084671Y-90850000D03*
X163624671Y-90850000D03*
X161084671Y-88310000D03*
X163624671Y-88310000D03*
X161084671Y-85770000D03*
X163624671Y-85770000D03*
X161084671Y-80690000D03*
X163624671Y-80690000D03*
X161084671Y-78150000D03*
X163624671Y-78150000D03*
X161084671Y-75610000D03*
X163624671Y-75610000D03*
X161084671Y-73070000D03*
X163624671Y-73070000D03*
X161084671Y-70530000D03*
X163624671Y-70530000D03*
X161084671Y-65450000D03*
X163624671Y-65450000D03*
X161084671Y-62910000D03*
X163624671Y-62910000D03*
X161084671Y-60370000D03*
X163624671Y-60370000D03*
X161084671Y-57830000D03*
X163624671Y-57830000D03*
X161084671Y-55290000D03*
X163624671Y-55290000D03*
X161084671Y-52750000D03*
X163624671Y-52750000D03*
X229084671Y-113710000D03*
X231624671Y-113710000D03*
X229084671Y-111170000D03*
X231624671Y-111170000D03*
X229084671Y-108630000D03*
X231624671Y-108630000D03*
X229084671Y-106090000D03*
X231624671Y-106090000D03*
X229084671Y-103550000D03*
X231624671Y-103550000D03*
X229084671Y-101010000D03*
X231624671Y-101010000D03*
X229084671Y-98470000D03*
X231624671Y-98470000D03*
X229084671Y-95930000D03*
X231624671Y-95930000D03*
X229084671Y-93390000D03*
X231624671Y-93390000D03*
X229084671Y-88310000D03*
X231624671Y-88310000D03*
X229084671Y-85770000D03*
X231624671Y-85770000D03*
X229084671Y-83230000D03*
X231624671Y-83230000D03*
X229084671Y-80690000D03*
X231624671Y-80690000D03*
X229084671Y-78150000D03*
X231624671Y-78150000D03*
X229084671Y-75610000D03*
X231624671Y-75610000D03*
X229084671Y-73070000D03*
X231624671Y-73070000D03*
X229084671Y-70530000D03*
X231624671Y-70530000D03*
X229084671Y-67990000D03*
X231624671Y-67990000D03*
X229084671Y-65450000D03*
X231624671Y-65450000D03*
X229084671Y-62910000D03*
X231624671Y-62910000D03*
X229084671Y-60370000D03*
X231624671Y-60370000D03*
X229084671Y-57830000D03*
X231624671Y-57830000D03*
X229084671Y-55290000D03*
X231624671Y-55290000D03*
X229084671Y-52750000D03*
X231624671Y-52750000D03*
D11*
X160854671Y-29285000D03*
X160854671Y-147285000D03*
X231854671Y-29285000D03*
D12*
X231854671Y-147285000D03*
%TD*%
D13*
%TO.C,U1*%
X178760000Y-116495000D03*
X178760000Y-119035000D03*
X178760000Y-121575000D03*
X178760000Y-124115000D03*
X178760000Y-126655000D03*
X178760000Y-129195000D03*
X178760000Y-131735000D03*
X178760000Y-134275000D03*
X213050000Y-136815000D03*
X213050000Y-134275000D03*
X213050000Y-131735000D03*
X213050000Y-129195000D03*
X213050000Y-126655000D03*
X213050000Y-124115000D03*
X213050000Y-121575000D03*
%TD*%
D14*
%TO.C,M1*%
X224250000Y-44600000D03*
D15*
X224250000Y-40400000D03*
X229750000Y-44600000D03*
X229750000Y-40400000D03*
%TD*%
D16*
%TO.C,D4*%
X175912500Y-65500000D03*
D17*
X173372500Y-65500000D03*
%TD*%
D18*
%TO.C,U4*%
X221683000Y-80793000D03*
X219143000Y-80793000D03*
D19*
X216603000Y-80793000D03*
D18*
X214063000Y-80793000D03*
%TD*%
D20*
%TO.C,J5*%
X185000000Y-30000000D03*
D21*
X185000000Y-35000000D03*
%TD*%
D22*
%TO.C,J4*%
X172500000Y-31500000D03*
D11*
X172500000Y-38700000D03*
%TD*%
D16*
%TO.C,D5*%
X175912500Y-55090000D03*
D17*
X173372500Y-55090000D03*
%TD*%
D20*
%TO.C,J2*%
X202500000Y-30000000D03*
D21*
X202500000Y-35000000D03*
%TD*%
D16*
%TO.C,D3*%
X175775000Y-60250000D03*
D17*
X173235000Y-60250000D03*
%TD*%
D13*
%TO.C,U2*%
X182530000Y-80455000D03*
X179990000Y-80455000D03*
X177450000Y-80455000D03*
D23*
X174910000Y-80455000D03*
D13*
X172370000Y-80455000D03*
D23*
X182530000Y-91145000D03*
%TD*%
D20*
%TO.C,J3*%
X195000000Y-30000000D03*
D21*
X195000000Y-35000000D03*
%TD*%
D24*
%TO.C,J6*%
X217100000Y-35750000D03*
D25*
X212900000Y-35750000D03*
X217100000Y-30250000D03*
X212900000Y-30250000D03*
%TD*%
D20*
%TO.C,J1*%
X162500000Y-37500000D03*
D21*
X162500000Y-42500000D03*
%TD*%
D13*
%TO.C,U5*%
X203884671Y-80455000D03*
X201344671Y-80455000D03*
X198804671Y-80455000D03*
D23*
X196264671Y-80455000D03*
D13*
X193724671Y-80455000D03*
D23*
X203884671Y-91145000D03*
%TD*%
D16*
%TO.C,D1*%
X175912500Y-50000000D03*
D17*
X173372500Y-50000000D03*
%TD*%
M02*
