%TF.GenerationSoftware,KiCad,Pcbnew,9.0.7*%
%TF.CreationDate,2026-01-21T23:08:40-06:00*%
%TF.ProjectId,ASTRA_Tracking_Antenna_V2,41535452-415f-4547-9261-636b696e675f,rev?*%
%TF.SameCoordinates,Original*%
%TF.FileFunction,Profile,NP*%
%FSLAX46Y46*%
G04 Gerber Fmt 4.6, Leading zero omitted, Abs format (unit mm)*
G04 Created by KiCad (PCBNEW 9.0.7) date 2026-01-21 23:08:40*
%MOMM*%
%LPD*%
G01*
G04 APERTURE LIST*
%TA.AperFunction,Profile*%
%ADD10C,0.050000*%
%TD*%
%TA.AperFunction,Profile*%
%ADD11C,0.010000*%
%TD*%
G04 APERTURE END LIST*
D10*
X238900000Y-29950000D02*
X238900000Y-147850000D01*
X154600000Y-147850000D02*
X154600000Y-29950000D01*
X154600000Y-29950000D02*
G75*
G02*
X160950000Y-23600000I6350000J0D01*
G01*
X232550000Y-154200000D02*
X160950000Y-154200000D01*
X160950000Y-23600000D02*
X232550000Y-23600000D01*
X238900000Y-147850000D02*
G75*
G02*
X232550000Y-154200000I-6350000J0D01*
G01*
X160950000Y-154200000D02*
G75*
G02*
X154600000Y-147850000I0J6350000D01*
G01*
X232550000Y-23600000D02*
G75*
G02*
X238900000Y-29950000I0J-6350000D01*
G01*
D11*
%TO.C,U1*%
X181630000Y-105065000D02*
G75*
G02*
X178430000Y-105065000I-1600000J0D01*
G01*
X178430000Y-105065000D02*
G75*
G02*
X181630000Y-105065000I1600000J0D01*
G01*
X181630000Y-140625000D02*
G75*
G02*
X178430000Y-140625000I-1600000J0D01*
G01*
X178430000Y-140625000D02*
G75*
G02*
X181630000Y-140625000I1600000J0D01*
G01*
X213380000Y-105065000D02*
G75*
G02*
X210180000Y-105065000I-1600000J0D01*
G01*
X210180000Y-105065000D02*
G75*
G02*
X213380000Y-105065000I1600000J0D01*
G01*
X213380000Y-140625000D02*
G75*
G02*
X210180000Y-140625000I-1600000J0D01*
G01*
X210180000Y-140625000D02*
G75*
G02*
X213380000Y-140625000I1600000J0D01*
G01*
D10*
%TO.C,U2*%
X169390000Y-81485000D02*
G75*
G02*
X167210000Y-81485000I-1090000J0D01*
G01*
X167210000Y-81485000D02*
G75*
G02*
X169390000Y-81485000I1090000J0D01*
G01*
X182590000Y-94685000D02*
G75*
G02*
X180410000Y-94685000I-1090000J0D01*
G01*
X180410000Y-94685000D02*
G75*
G02*
X182590000Y-94685000I1090000J0D01*
G01*
%TO.C,U5*%
X190744671Y-81485000D02*
G75*
G02*
X188564671Y-81485000I-1090000J0D01*
G01*
X188564671Y-81485000D02*
G75*
G02*
X190744671Y-81485000I1090000J0D01*
G01*
X203944671Y-94685000D02*
G75*
G02*
X201764671Y-94685000I-1090000J0D01*
G01*
X201764671Y-94685000D02*
G75*
G02*
X203944671Y-94685000I1090000J0D01*
G01*
%TD*%
M02*
