%TF.GenerationSoftware,KiCad,Pcbnew,9.0.7*%
%TF.CreationDate,2026-01-21T23:08:40-06:00*%
%TF.ProjectId,ASTRA_Tracking_Antenna_V2,41535452-415f-4547-9261-636b696e675f,rev?*%
%TF.SameCoordinates,Original*%
%TF.FileFunction,Legend,Bot*%
%TF.FilePolarity,Positive*%
%FSLAX46Y46*%
G04 Gerber Fmt 4.6, Leading zero omitted, Abs format (unit mm)*
G04 Created by KiCad (PCBNEW 9.0.7) date 2026-01-21 23:08:40*
%MOMM*%
%LPD*%
G01*
G04 APERTURE LIST*
%ADD10C,0.200000*%
%ADD11C,0.120000*%
G04 APERTURE END LIST*
D10*
X224554136Y-148867219D02*
X225030326Y-148867219D01*
X225030326Y-148867219D02*
X225030326Y-147867219D01*
X223792231Y-148867219D02*
X223792231Y-148343409D01*
X223792231Y-148343409D02*
X223839850Y-148248171D01*
X223839850Y-148248171D02*
X223935088Y-148200552D01*
X223935088Y-148200552D02*
X224125564Y-148200552D01*
X224125564Y-148200552D02*
X224220802Y-148248171D01*
X223792231Y-148819600D02*
X223887469Y-148867219D01*
X223887469Y-148867219D02*
X224125564Y-148867219D01*
X224125564Y-148867219D02*
X224220802Y-148819600D01*
X224220802Y-148819600D02*
X224268421Y-148724361D01*
X224268421Y-148724361D02*
X224268421Y-148629123D01*
X224268421Y-148629123D02*
X224220802Y-148533885D01*
X224220802Y-148533885D02*
X224125564Y-148486266D01*
X224125564Y-148486266D02*
X223887469Y-148486266D01*
X223887469Y-148486266D02*
X223792231Y-148438647D01*
X223458897Y-148200552D02*
X223077945Y-148200552D01*
X223316040Y-147867219D02*
X223316040Y-148724361D01*
X223316040Y-148724361D02*
X223268421Y-148819600D01*
X223268421Y-148819600D02*
X223173183Y-148867219D01*
X223173183Y-148867219D02*
X223077945Y-148867219D01*
X222887468Y-148200552D02*
X222506516Y-148200552D01*
X222744611Y-147867219D02*
X222744611Y-148724361D01*
X222744611Y-148724361D02*
X222696992Y-148819600D01*
X222696992Y-148819600D02*
X222601754Y-148867219D01*
X222601754Y-148867219D02*
X222506516Y-148867219D01*
X221792230Y-148819600D02*
X221887468Y-148867219D01*
X221887468Y-148867219D02*
X222077944Y-148867219D01*
X222077944Y-148867219D02*
X222173182Y-148819600D01*
X222173182Y-148819600D02*
X222220801Y-148724361D01*
X222220801Y-148724361D02*
X222220801Y-148343409D01*
X222220801Y-148343409D02*
X222173182Y-148248171D01*
X222173182Y-148248171D02*
X222077944Y-148200552D01*
X222077944Y-148200552D02*
X221887468Y-148200552D01*
X221887468Y-148200552D02*
X221792230Y-148248171D01*
X221792230Y-148248171D02*
X221744611Y-148343409D01*
X221744611Y-148343409D02*
X221744611Y-148438647D01*
X221744611Y-148438647D02*
X222220801Y-148533885D01*
X221316039Y-148867219D02*
X221316039Y-147867219D01*
X221316039Y-147867219D02*
X220935087Y-147867219D01*
X220935087Y-147867219D02*
X220839849Y-147914838D01*
X220839849Y-147914838D02*
X220792230Y-147962457D01*
X220792230Y-147962457D02*
X220744611Y-148057695D01*
X220744611Y-148057695D02*
X220744611Y-148200552D01*
X220744611Y-148200552D02*
X220792230Y-148295790D01*
X220792230Y-148295790D02*
X220839849Y-148343409D01*
X220839849Y-148343409D02*
X220935087Y-148391028D01*
X220935087Y-148391028D02*
X221316039Y-148391028D01*
X219887468Y-148867219D02*
X219887468Y-148343409D01*
X219887468Y-148343409D02*
X219935087Y-148248171D01*
X219935087Y-148248171D02*
X220030325Y-148200552D01*
X220030325Y-148200552D02*
X220220801Y-148200552D01*
X220220801Y-148200552D02*
X220316039Y-148248171D01*
X219887468Y-148819600D02*
X219982706Y-148867219D01*
X219982706Y-148867219D02*
X220220801Y-148867219D01*
X220220801Y-148867219D02*
X220316039Y-148819600D01*
X220316039Y-148819600D02*
X220363658Y-148724361D01*
X220363658Y-148724361D02*
X220363658Y-148629123D01*
X220363658Y-148629123D02*
X220316039Y-148533885D01*
X220316039Y-148533885D02*
X220220801Y-148486266D01*
X220220801Y-148486266D02*
X219982706Y-148486266D01*
X219982706Y-148486266D02*
X219887468Y-148438647D01*
X219411277Y-148200552D02*
X219411277Y-148867219D01*
X219411277Y-148295790D02*
X219363658Y-148248171D01*
X219363658Y-148248171D02*
X219268420Y-148200552D01*
X219268420Y-148200552D02*
X219125563Y-148200552D01*
X219125563Y-148200552D02*
X219030325Y-148248171D01*
X219030325Y-148248171D02*
X218982706Y-148343409D01*
X218982706Y-148343409D02*
X218982706Y-148867219D01*
X218077944Y-148867219D02*
X218077944Y-147867219D01*
X218077944Y-148819600D02*
X218173182Y-148867219D01*
X218173182Y-148867219D02*
X218363658Y-148867219D01*
X218363658Y-148867219D02*
X218458896Y-148819600D01*
X218458896Y-148819600D02*
X218506515Y-148771980D01*
X218506515Y-148771980D02*
X218554134Y-148676742D01*
X218554134Y-148676742D02*
X218554134Y-148391028D01*
X218554134Y-148391028D02*
X218506515Y-148295790D01*
X218506515Y-148295790D02*
X218458896Y-148248171D01*
X218458896Y-148248171D02*
X218363658Y-148200552D01*
X218363658Y-148200552D02*
X218173182Y-148200552D01*
X218173182Y-148200552D02*
X218077944Y-148248171D01*
X217173182Y-148867219D02*
X217173182Y-148343409D01*
X217173182Y-148343409D02*
X217220801Y-148248171D01*
X217220801Y-148248171D02*
X217316039Y-148200552D01*
X217316039Y-148200552D02*
X217506515Y-148200552D01*
X217506515Y-148200552D02*
X217601753Y-148248171D01*
X217173182Y-148819600D02*
X217268420Y-148867219D01*
X217268420Y-148867219D02*
X217506515Y-148867219D01*
X217506515Y-148867219D02*
X217601753Y-148819600D01*
X217601753Y-148819600D02*
X217649372Y-148724361D01*
X217649372Y-148724361D02*
X217649372Y-148629123D01*
X217649372Y-148629123D02*
X217601753Y-148533885D01*
X217601753Y-148533885D02*
X217506515Y-148486266D01*
X217506515Y-148486266D02*
X217268420Y-148486266D01*
X217268420Y-148486266D02*
X217173182Y-148438647D01*
X216030324Y-147867219D02*
X215411277Y-147867219D01*
X215411277Y-147867219D02*
X215744610Y-148248171D01*
X215744610Y-148248171D02*
X215601753Y-148248171D01*
X215601753Y-148248171D02*
X215506515Y-148295790D01*
X215506515Y-148295790D02*
X215458896Y-148343409D01*
X215458896Y-148343409D02*
X215411277Y-148438647D01*
X215411277Y-148438647D02*
X215411277Y-148676742D01*
X215411277Y-148676742D02*
X215458896Y-148771980D01*
X215458896Y-148771980D02*
X215506515Y-148819600D01*
X215506515Y-148819600D02*
X215601753Y-148867219D01*
X215601753Y-148867219D02*
X215887467Y-148867219D01*
X215887467Y-148867219D02*
X215982705Y-148819600D01*
X215982705Y-148819600D02*
X216030324Y-148771980D01*
X214982705Y-148486266D02*
X214220801Y-148486266D01*
X213744610Y-148867219D02*
X213744610Y-147867219D01*
X213744610Y-147867219D02*
X213506515Y-147867219D01*
X213506515Y-147867219D02*
X213363658Y-147914838D01*
X213363658Y-147914838D02*
X213268420Y-148010076D01*
X213268420Y-148010076D02*
X213220801Y-148105314D01*
X213220801Y-148105314D02*
X213173182Y-148295790D01*
X213173182Y-148295790D02*
X213173182Y-148438647D01*
X213173182Y-148438647D02*
X213220801Y-148629123D01*
X213220801Y-148629123D02*
X213268420Y-148724361D01*
X213268420Y-148724361D02*
X213363658Y-148819600D01*
X213363658Y-148819600D02*
X213506515Y-148867219D01*
X213506515Y-148867219D02*
X213744610Y-148867219D01*
X212363658Y-148819600D02*
X212458896Y-148867219D01*
X212458896Y-148867219D02*
X212649372Y-148867219D01*
X212649372Y-148867219D02*
X212744610Y-148819600D01*
X212744610Y-148819600D02*
X212792229Y-148724361D01*
X212792229Y-148724361D02*
X212792229Y-148343409D01*
X212792229Y-148343409D02*
X212744610Y-148248171D01*
X212744610Y-148248171D02*
X212649372Y-148200552D01*
X212649372Y-148200552D02*
X212458896Y-148200552D01*
X212458896Y-148200552D02*
X212363658Y-148248171D01*
X212363658Y-148248171D02*
X212316039Y-148343409D01*
X212316039Y-148343409D02*
X212316039Y-148438647D01*
X212316039Y-148438647D02*
X212792229Y-148533885D01*
X211744610Y-148867219D02*
X211839848Y-148819600D01*
X211839848Y-148819600D02*
X211887467Y-148724361D01*
X211887467Y-148724361D02*
X211887467Y-147867219D01*
X211506514Y-148200552D02*
X211125562Y-148200552D01*
X211363657Y-147867219D02*
X211363657Y-148724361D01*
X211363657Y-148724361D02*
X211316038Y-148819600D01*
X211316038Y-148819600D02*
X211220800Y-148867219D01*
X211220800Y-148867219D02*
X211125562Y-148867219D01*
X210363657Y-148867219D02*
X210363657Y-148343409D01*
X210363657Y-148343409D02*
X210411276Y-148248171D01*
X210411276Y-148248171D02*
X210506514Y-148200552D01*
X210506514Y-148200552D02*
X210696990Y-148200552D01*
X210696990Y-148200552D02*
X210792228Y-148248171D01*
X210363657Y-148819600D02*
X210458895Y-148867219D01*
X210458895Y-148867219D02*
X210696990Y-148867219D01*
X210696990Y-148867219D02*
X210792228Y-148819600D01*
X210792228Y-148819600D02*
X210839847Y-148724361D01*
X210839847Y-148724361D02*
X210839847Y-148629123D01*
X210839847Y-148629123D02*
X210792228Y-148533885D01*
X210792228Y-148533885D02*
X210696990Y-148486266D01*
X210696990Y-148486266D02*
X210458895Y-148486266D01*
X210458895Y-148486266D02*
X210363657Y-148438647D01*
D11*
%TO.C,A1*%
X235454671Y-147785000D02*
G75*
G02*
X232354671Y-150885000I-3100000J0D01*
G01*
X232354671Y-25685000D02*
G75*
G02*
X235454671Y-28785000I0J-3100000D01*
G01*
X160354671Y-150885000D02*
G75*
G02*
X157254671Y-147785000I0J3100000D01*
G01*
X157254671Y-28785000D02*
G75*
G02*
X160354671Y-25685000I3100000J0D01*
G01*
X235454671Y-28785000D02*
X235454671Y-147785000D01*
X232354671Y-150885000D02*
X160354671Y-150885000D01*
X232354671Y-25685000D02*
X160354671Y-25685000D01*
X157254671Y-28785000D02*
X157254671Y-147785000D01*
%TD*%
M02*
