%TF.GenerationSoftware,KiCad,Pcbnew,9.0.7*%
%TF.CreationDate,2026-01-21T23:08:40-06:00*%
%TF.ProjectId,ASTRA_Tracking_Antenna_V2,41535452-415f-4547-9261-636b696e675f,rev?*%
%TF.SameCoordinates,Original*%
%TF.FileFunction,Soldermask,Top*%
%TF.FilePolarity,Negative*%
%FSLAX46Y46*%
G04 Gerber Fmt 4.6, Leading zero omitted, Abs format (unit mm)*
G04 Created by KiCad (PCBNEW 9.0.7) date 2026-01-21 23:08:40*
%MOMM*%
%LPD*%
G01*
G04 APERTURE LIST*
G04 Aperture macros list*
%AMRoundRect*
0 Rectangle with rounded corners*
0 $1 Rounding radius*
0 $2 $3 $4 $5 $6 $7 $8 $9 X,Y pos of 4 corners*
0 Add a 4 corners polygon primitive as box body*
4,1,4,$2,$3,$4,$5,$6,$7,$8,$9,$2,$3,0*
0 Add four circle primitives for the rounded corners*
1,1,$1+$1,$2,$3*
1,1,$1+$1,$4,$5*
1,1,$1+$1,$6,$7*
1,1,$1+$1,$8,$9*
0 Add four rect primitives between the rounded corners*
20,1,$1+$1,$2,$3,$4,$5,0*
20,1,$1+$1,$4,$5,$6,$7,0*
20,1,$1+$1,$6,$7,$8,$9,0*
20,1,$1+$1,$8,$9,$2,$3,0*%
G04 Aperture macros list end*
%ADD10C,1.700000*%
%ADD11C,6.000000*%
%ADD12C,5.600000*%
%ADD13C,1.524000*%
%ADD14RoundRect,0.059250X0.472750X0.177750X-0.472750X0.177750X-0.472750X-0.177750X0.472750X-0.177750X0*%
%ADD15RoundRect,0.059250X0.177750X0.472750X-0.177750X0.472750X-0.177750X-0.472750X0.177750X-0.472750X0*%
%ADD16RoundRect,0.102000X1.225000X1.225000X-1.225000X1.225000X-1.225000X-1.225000X1.225000X-1.225000X0*%
%ADD17RoundRect,0.250001X1.399999X-1.099999X1.399999X1.099999X-1.399999X1.099999X-1.399999X-1.099999X0*%
%ADD18O,3.300000X2.700000*%
%ADD19R,1.700000X1.700000*%
%ADD20O,1.700000X1.700000*%
%ADD21C,1.879600*%
%ADD22RoundRect,0.050800X0.889000X-0.889000X0.889000X0.889000X-0.889000X0.889000X-0.889000X-0.889000X0*%
%ADD23R,3.800000X3.800000*%
%ADD24C,4.000000*%
%ADD25RoundRect,1.500000X-1.500000X1.500000X-1.500000X-1.500000X1.500000X-1.500000X1.500000X1.500000X0*%
%ADD26RoundRect,0.237500X-0.250000X-0.237500X0.250000X-0.237500X0.250000X0.237500X-0.250000X0.237500X0*%
%ADD27RoundRect,0.237500X0.250000X0.237500X-0.250000X0.237500X-0.250000X-0.237500X0.250000X-0.237500X0*%
%ADD28R,1.524000X1.524000*%
%ADD29RoundRect,0.237500X-0.237500X0.300000X-0.237500X-0.300000X0.237500X-0.300000X0.237500X0.300000X0*%
%ADD30RoundRect,0.250001X1.099999X1.399999X-1.099999X1.399999X-1.099999X-1.399999X1.099999X-1.399999X0*%
%ADD31O,2.700000X3.300000*%
%ADD32RoundRect,0.237500X0.237500X-0.300000X0.237500X0.300000X-0.237500X0.300000X-0.237500X-0.300000X0*%
%ADD33R,1.500000X1.000000*%
G04 APERTURE END LIST*
D10*
%TO.C,A1*%
X161084671Y-113710000D03*
X163624671Y-113710000D03*
X161084671Y-111170000D03*
X163624671Y-111170000D03*
X161084671Y-108630000D03*
X163624671Y-108630000D03*
X161084671Y-106090000D03*
X163624671Y-106090000D03*
X161084671Y-103550000D03*
X163624671Y-103550000D03*
X161084671Y-101010000D03*
X163624671Y-101010000D03*
X161084671Y-98470000D03*
X163624671Y-98470000D03*
X161084671Y-95930000D03*
X163624671Y-95930000D03*
X161084671Y-93390000D03*
X163624671Y-93390000D03*
X161084671Y-90850000D03*
X163624671Y-90850000D03*
X161084671Y-88310000D03*
X163624671Y-88310000D03*
X161084671Y-85770000D03*
X163624671Y-85770000D03*
X161084671Y-80690000D03*
X163624671Y-80690000D03*
X161084671Y-78150000D03*
X163624671Y-78150000D03*
X161084671Y-75610000D03*
X163624671Y-75610000D03*
X161084671Y-73070000D03*
X163624671Y-73070000D03*
X161084671Y-70530000D03*
X163624671Y-70530000D03*
X161084671Y-65450000D03*
X163624671Y-65450000D03*
X161084671Y-62910000D03*
X163624671Y-62910000D03*
X161084671Y-60370000D03*
X163624671Y-60370000D03*
X161084671Y-57830000D03*
X163624671Y-57830000D03*
X161084671Y-55290000D03*
X163624671Y-55290000D03*
X161084671Y-52750000D03*
X163624671Y-52750000D03*
X229084671Y-113710000D03*
X231624671Y-113710000D03*
X229084671Y-111170000D03*
X231624671Y-111170000D03*
X229084671Y-108630000D03*
X231624671Y-108630000D03*
X229084671Y-106090000D03*
X231624671Y-106090000D03*
X229084671Y-103550000D03*
X231624671Y-103550000D03*
X229084671Y-101010000D03*
X231624671Y-101010000D03*
X229084671Y-98470000D03*
X231624671Y-98470000D03*
X229084671Y-95930000D03*
X231624671Y-95930000D03*
X229084671Y-93390000D03*
X231624671Y-93390000D03*
X229084671Y-88310000D03*
X231624671Y-88310000D03*
X229084671Y-85770000D03*
X231624671Y-85770000D03*
X229084671Y-83230000D03*
X231624671Y-83230000D03*
X229084671Y-80690000D03*
X231624671Y-80690000D03*
X229084671Y-78150000D03*
X231624671Y-78150000D03*
X229084671Y-75610000D03*
X231624671Y-75610000D03*
X229084671Y-73070000D03*
X231624671Y-73070000D03*
X229084671Y-70530000D03*
X231624671Y-70530000D03*
X229084671Y-67990000D03*
X231624671Y-67990000D03*
X229084671Y-65450000D03*
X231624671Y-65450000D03*
X229084671Y-62910000D03*
X231624671Y-62910000D03*
X229084671Y-60370000D03*
X231624671Y-60370000D03*
X229084671Y-57830000D03*
X231624671Y-57830000D03*
X229084671Y-55290000D03*
X231624671Y-55290000D03*
X229084671Y-52750000D03*
X231624671Y-52750000D03*
D11*
X160854671Y-29285000D03*
X160854671Y-147285000D03*
X231854671Y-29285000D03*
D12*
X231854671Y-147285000D03*
%TD*%
D13*
%TO.C,U1*%
X178760000Y-116495000D03*
X178760000Y-119035000D03*
X178760000Y-121575000D03*
X178760000Y-124115000D03*
X178760000Y-126655000D03*
X178760000Y-129195000D03*
X178760000Y-131735000D03*
X178760000Y-134275000D03*
X213050000Y-136815000D03*
X213050000Y-134275000D03*
X213050000Y-131735000D03*
X213050000Y-129195000D03*
X213050000Y-126655000D03*
X213050000Y-124115000D03*
X213050000Y-121575000D03*
%TD*%
D14*
%TO.C,U3*%
X218723750Y-56250000D03*
X218723750Y-55750000D03*
X218723750Y-55250000D03*
X218723750Y-54750000D03*
X218723750Y-54250000D03*
X218723750Y-53750000D03*
D15*
X218038750Y-53065000D03*
X217538750Y-53065000D03*
X217038750Y-53065000D03*
X216538750Y-53065000D03*
X216038750Y-53065000D03*
X215538750Y-53065000D03*
D14*
X214853750Y-53750000D03*
X214853750Y-54250000D03*
X214853750Y-54750000D03*
X214853750Y-55250000D03*
X214853750Y-55750000D03*
X214853750Y-56250000D03*
D15*
X215538750Y-56935000D03*
X216038750Y-56935000D03*
X216538750Y-56935000D03*
X217038750Y-56935000D03*
X217538750Y-56935000D03*
X218038750Y-56935000D03*
D16*
X216788750Y-55000000D03*
%TD*%
D17*
%TO.C,M1*%
X224250000Y-44600000D03*
D18*
X224250000Y-40400000D03*
X229750000Y-44600000D03*
X229750000Y-40400000D03*
%TD*%
D19*
%TO.C,D4*%
X175912500Y-65500000D03*
D20*
X173372500Y-65500000D03*
%TD*%
D21*
%TO.C,U4*%
X221683000Y-80793000D03*
X219143000Y-80793000D03*
D22*
X216603000Y-80793000D03*
D21*
X214063000Y-80793000D03*
%TD*%
D23*
%TO.C,J5*%
X185000000Y-30000000D03*
D24*
X185000000Y-35000000D03*
%TD*%
D25*
%TO.C,J4*%
X172500000Y-31500000D03*
D11*
X172500000Y-38700000D03*
%TD*%
D26*
%TO.C,R2*%
X179547500Y-55090000D03*
X181372500Y-55090000D03*
%TD*%
D19*
%TO.C,D5*%
X175912500Y-55090000D03*
D20*
X173372500Y-55090000D03*
%TD*%
D27*
%TO.C,R3*%
X181284964Y-60250000D03*
X179459964Y-60250000D03*
%TD*%
D23*
%TO.C,J2*%
X202500000Y-30000000D03*
D24*
X202500000Y-35000000D03*
%TD*%
D19*
%TO.C,D3*%
X175775000Y-60250000D03*
D20*
X173235000Y-60250000D03*
%TD*%
D13*
%TO.C,U2*%
X182530000Y-80455000D03*
X179990000Y-80455000D03*
X177450000Y-80455000D03*
D28*
X174910000Y-80455000D03*
D13*
X172370000Y-80455000D03*
D28*
X182530000Y-91145000D03*
%TD*%
D29*
%TO.C,C4*%
X207350000Y-53037500D03*
X207350000Y-54762500D03*
%TD*%
D23*
%TO.C,J3*%
X195000000Y-30000000D03*
D24*
X195000000Y-35000000D03*
%TD*%
D30*
%TO.C,J6*%
X217100000Y-35750000D03*
D31*
X212900000Y-35750000D03*
X217100000Y-30250000D03*
X212900000Y-30250000D03*
%TD*%
D32*
%TO.C,C2*%
X212000000Y-51712500D03*
X212000000Y-49987500D03*
%TD*%
D33*
%TO.C,D2*%
X191550000Y-51150000D03*
X191550000Y-54350000D03*
X196450000Y-54350000D03*
X196450000Y-51150000D03*
%TD*%
D27*
%TO.C,R4*%
X181422464Y-65500000D03*
X179597464Y-65500000D03*
%TD*%
D23*
%TO.C,J1*%
X162500000Y-37500000D03*
D24*
X162500000Y-42500000D03*
%TD*%
D13*
%TO.C,U5*%
X203884671Y-80455000D03*
X201344671Y-80455000D03*
X198804671Y-80455000D03*
D28*
X196264671Y-80455000D03*
D13*
X193724671Y-80455000D03*
D28*
X203884671Y-91145000D03*
%TD*%
D19*
%TO.C,D1*%
X175912500Y-50000000D03*
D20*
X173372500Y-50000000D03*
%TD*%
D27*
%TO.C,R1*%
X181422464Y-50000000D03*
X179597464Y-50000000D03*
%TD*%
D29*
%TO.C,C3*%
X210350000Y-52987500D03*
X210350000Y-54712500D03*
%TD*%
%TO.C,C1*%
X196450000Y-57287500D03*
X196450000Y-59012500D03*
%TD*%
M02*
