%TF.GenerationSoftware,KiCad,Pcbnew,9.0.7*%
%TF.CreationDate,2026-01-21T23:08:40-06:00*%
%TF.ProjectId,ASTRA_Tracking_Antenna_V2,41535452-415f-4547-9261-636b696e675f,rev?*%
%TF.SameCoordinates,Original*%
%TF.FileFunction,Paste,Top*%
%TF.FilePolarity,Positive*%
%FSLAX46Y46*%
G04 Gerber Fmt 4.6, Leading zero omitted, Abs format (unit mm)*
G04 Created by KiCad (PCBNEW 9.0.7) date 2026-01-21 23:08:40*
%MOMM*%
%LPD*%
G01*
G04 APERTURE LIST*
G04 Aperture macros list*
%AMRoundRect*
0 Rectangle with rounded corners*
0 $1 Rounding radius*
0 $2 $3 $4 $5 $6 $7 $8 $9 X,Y pos of 4 corners*
0 Add a 4 corners polygon primitive as box body*
4,1,4,$2,$3,$4,$5,$6,$7,$8,$9,$2,$3,0*
0 Add four circle primitives for the rounded corners*
1,1,$1+$1,$2,$3*
1,1,$1+$1,$4,$5*
1,1,$1+$1,$6,$7*
1,1,$1+$1,$8,$9*
0 Add four rect primitives between the rounded corners*
20,1,$1+$1,$2,$3,$4,$5,0*
20,1,$1+$1,$4,$5,$6,$7,0*
20,1,$1+$1,$6,$7,$8,$9,0*
20,1,$1+$1,$8,$9,$2,$3,0*%
G04 Aperture macros list end*
%ADD10C,0.010000*%
%ADD11RoundRect,0.033750X0.396250X0.101250X-0.396250X0.101250X-0.396250X-0.101250X0.396250X-0.101250X0*%
%ADD12RoundRect,0.033750X0.101250X0.396250X-0.101250X0.396250X-0.101250X-0.396250X0.101250X-0.396250X0*%
%ADD13RoundRect,0.237500X-0.250000X-0.237500X0.250000X-0.237500X0.250000X0.237500X-0.250000X0.237500X0*%
%ADD14RoundRect,0.237500X0.250000X0.237500X-0.250000X0.237500X-0.250000X-0.237500X0.250000X-0.237500X0*%
%ADD15RoundRect,0.237500X-0.237500X0.300000X-0.237500X-0.300000X0.237500X-0.300000X0.237500X0.300000X0*%
%ADD16RoundRect,0.237500X0.237500X-0.300000X0.237500X0.300000X-0.237500X0.300000X-0.237500X-0.300000X0*%
%ADD17R,1.500000X1.000000*%
G04 APERTURE END LIST*
D10*
%TO.C,U3*%
X217563750Y-55775000D02*
X216013750Y-55775000D01*
X216013750Y-54225000D01*
X217563750Y-54225000D01*
X217563750Y-55775000D01*
G36*
X217563750Y-55775000D02*
G01*
X216013750Y-55775000D01*
X216013750Y-54225000D01*
X217563750Y-54225000D01*
X217563750Y-55775000D01*
G37*
%TD*%
D11*
%TO.C,U3*%
X218723750Y-56250000D03*
X218723750Y-55750000D03*
X218723750Y-55250000D03*
X218723750Y-54750000D03*
X218723750Y-54250000D03*
X218723750Y-53750000D03*
D12*
X218038750Y-53065000D03*
X217538750Y-53065000D03*
X217038750Y-53065000D03*
X216538750Y-53065000D03*
X216038750Y-53065000D03*
X215538750Y-53065000D03*
D11*
X214853750Y-53750000D03*
X214853750Y-54250000D03*
X214853750Y-54750000D03*
X214853750Y-55250000D03*
X214853750Y-55750000D03*
X214853750Y-56250000D03*
D12*
X215538750Y-56935000D03*
X216038750Y-56935000D03*
X216538750Y-56935000D03*
X217038750Y-56935000D03*
X217538750Y-56935000D03*
X218038750Y-56935000D03*
%TD*%
D13*
%TO.C,R2*%
X179547500Y-55090000D03*
X181372500Y-55090000D03*
%TD*%
D14*
%TO.C,R3*%
X181284964Y-60250000D03*
X179459964Y-60250000D03*
%TD*%
D15*
%TO.C,C4*%
X207350000Y-53037500D03*
X207350000Y-54762500D03*
%TD*%
D16*
%TO.C,C2*%
X212000000Y-51712500D03*
X212000000Y-49987500D03*
%TD*%
D17*
%TO.C,D2*%
X191550000Y-51150000D03*
X191550000Y-54350000D03*
X196450000Y-54350000D03*
X196450000Y-51150000D03*
%TD*%
D14*
%TO.C,R4*%
X181422464Y-65500000D03*
X179597464Y-65500000D03*
%TD*%
%TO.C,R1*%
X181422464Y-50000000D03*
X179597464Y-50000000D03*
%TD*%
D15*
%TO.C,C3*%
X210350000Y-52987500D03*
X210350000Y-54712500D03*
%TD*%
%TO.C,C1*%
X196450000Y-57287500D03*
X196450000Y-59012500D03*
%TD*%
M02*
