M48
; DRILL file {KiCad 9.0.7} date 2026-01-21T23:08:46-0600
; FORMAT={-:-/ absolute / metric / decimal}
; #@! TF.CreationDate,2026-01-21T23:08:46-06:00
; #@! TF.GenerationSoftware,Kicad,Pcbnew,9.0.7
; #@! TF.FileFunction,Plated,1,2,PTH
FMAT,2
METRIC
; #@! TA.AperFunction,Plated,PTH,ViaDrill
T1C0.300
; #@! TA.AperFunction,Plated,PTH,ComponentDrill
T2C0.762
; #@! TA.AperFunction,Plated,PTH,ComponentDrill
T3C1.000
; #@! TA.AperFunction,Plated,PTH,ComponentDrill
T4C1.400
; #@! TA.AperFunction,Plated,PTH,ComponentDrill
T5C2.700
; #@! TA.AperFunction,Plated,PTH,ComponentDrill
T6C4.500
%
G90
G05
T1
X159.5Y-46.0
X159.5Y-47.5
X159.5Y-49.0
X159.5Y-50.5
X161.0Y-46.0
X161.0Y-47.5
X161.0Y-49.0
X161.0Y-50.5
X164.0Y-46.0
X164.0Y-47.5
X164.0Y-49.0
X164.0Y-50.5
X165.5Y-46.0
X165.5Y-47.5
X165.5Y-49.0
X165.5Y-50.5
X165.5Y-52.0
X165.5Y-53.5
X165.5Y-56.5
X165.5Y-58.0
X165.5Y-59.5
X165.5Y-61.0
X165.5Y-62.5
X165.5Y-64.0
X165.5Y-65.5
X165.5Y-67.0
X165.5Y-68.5
X165.5Y-70.0
X165.5Y-71.5
X165.5Y-73.0
X165.5Y-74.5
X165.5Y-76.0
X165.5Y-77.5
X167.0Y-46.0
X167.0Y-47.5
X167.0Y-49.0
X167.0Y-50.5
X167.0Y-52.0
X167.0Y-53.5
X167.0Y-71.5
X167.0Y-73.0
X167.0Y-74.5
X167.0Y-76.0
X167.0Y-77.5
X167.0Y-79.0
X168.5Y-46.0
X168.5Y-47.5
X168.5Y-49.0
X168.5Y-50.5
X168.5Y-52.0
X168.5Y-79.0
X169.0Y-56.5
X169.0Y-58.0
X169.5Y-80.0
X170.0Y-46.0
X170.0Y-47.5
X170.0Y-49.0
X170.0Y-50.5
X170.0Y-60.0
X170.0Y-62.0
X170.0Y-74.5
X170.0Y-76.0
X170.5Y-56.5
X170.5Y-81.0
X171.0Y-54.0
X171.0Y-59.0
X171.0Y-61.0
X171.5Y-46.0
X171.5Y-47.5
X171.5Y-63.5
X171.5Y-67.0
X171.5Y-68.5
X171.5Y-70.0
X171.5Y-76.0
X171.5Y-77.5
X172.5Y-62.5
X173.0Y-68.5
X173.0Y-70.0
X173.0Y-71.5
X173.0Y-77.5
X173.0Y-79.0
X173.5Y-46.0
X173.5Y-47.5
X173.5Y-57.0
X174.0Y-52.5
X174.5Y-68.5
X174.5Y-70.0
X174.5Y-71.5
X174.5Y-73.0
X174.5Y-79.0
X175.0Y-46.0
X175.0Y-47.5
X175.0Y-82.0
X175.5Y-74.0
X176.0Y-52.5
X176.0Y-70.0
X176.0Y-83.0
X176.5Y-46.0
X176.5Y-47.5
X176.5Y-75.0
X176.5Y-82.0
X177.0Y-71.0
X177.0Y-84.0
X177.5Y-68.0
X177.5Y-76.0
X177.5Y-83.0
X178.0Y-46.0
X178.0Y-47.5
X178.0Y-51.0
X178.0Y-52.5
X178.0Y-54.0
X178.0Y-56.5
X178.0Y-72.0
X178.0Y-85.0
X178.5Y-69.0
X178.5Y-77.0
X178.5Y-84.0
X179.0Y-73.0
X179.5Y-46.0
X179.5Y-47.5
X179.5Y-70.0
X179.5Y-85.0
X179.5Y-86.5
X180.0Y-52.5
X180.0Y-56.5
X180.0Y-74.0
X180.0Y-77.0
X180.0Y-124.5
X180.0Y-126.0
X180.0Y-135.5
X180.0Y-137.0
X180.5Y-71.0
X181.0Y-46.0
X181.0Y-47.5
X181.0Y-75.0
X181.0Y-82.0
X181.0Y-85.0
X181.0Y-86.5
X181.0Y-123.5
X181.0Y-125.0
X181.0Y-134.5
X181.0Y-136.0
X181.5Y-72.0
X181.5Y-77.0
X182.0Y-76.0
X182.0Y-122.5
X182.0Y-124.0
X182.0Y-133.5
X182.0Y-135.0
X182.5Y-46.0
X182.5Y-47.5
X182.5Y-73.0
X182.5Y-82.0
X182.5Y-85.0
X182.5Y-86.5
X183.0Y-77.0
X183.0Y-121.5
X183.0Y-123.0
X183.0Y-132.5
X183.0Y-134.0
X183.5Y-74.0
X184.0Y-46.0
X184.0Y-47.5
X184.0Y-59.5
X184.0Y-61.0
X184.0Y-62.5
X184.0Y-64.0
X184.0Y-65.5
X184.0Y-67.0
X184.0Y-68.5
X184.0Y-70.0
X184.0Y-71.5
X184.0Y-120.5
X184.0Y-122.0
X184.0Y-131.5
X184.0Y-133.0
X184.5Y-73.0
X184.5Y-75.0
X184.5Y-80.5
X184.5Y-82.0
X184.5Y-85.0
X184.5Y-86.5
X185.0Y-119.5
X185.0Y-121.0
X185.0Y-130.5
X185.0Y-132.0
X185.5Y-74.0
X186.0Y-80.5
X186.0Y-82.0
X186.0Y-85.0
X186.0Y-86.5
X186.0Y-118.5
X186.0Y-120.0
X186.0Y-129.5
X186.0Y-131.0
X186.5Y-75.0
X187.0Y-46.0
X187.0Y-47.5
X187.0Y-58.0
X187.0Y-59.5
X187.0Y-61.0
X187.0Y-62.5
X187.0Y-64.0
X187.0Y-65.5
X187.0Y-67.0
X187.0Y-68.5
X187.0Y-70.0
X187.0Y-71.5
X187.0Y-117.5
X187.0Y-119.0
X187.0Y-128.5
X187.0Y-130.0
X187.5Y-80.5
X187.5Y-82.0
X187.5Y-85.0
X187.5Y-86.5
X188.0Y-73.0
X188.0Y-116.5
X188.0Y-118.0
X188.0Y-127.5
X188.0Y-129.0
X188.5Y-46.0
X188.5Y-47.5
X188.5Y-59.5
X188.5Y-61.0
X188.5Y-62.5
X188.5Y-64.0
X188.5Y-65.5
X188.5Y-67.0
X188.5Y-68.5
X188.5Y-70.0
X188.5Y-71.5
X189.0Y-74.0
X189.0Y-115.5
X189.0Y-117.0
X189.0Y-126.5
X189.0Y-128.0
X189.5Y-85.0
X189.5Y-86.5
X190.0Y-46.0
X190.0Y-47.5
X190.0Y-75.0
X190.0Y-114.5
X190.0Y-116.0
X190.0Y-125.5
X190.0Y-127.0
X191.0Y-57.0
X191.0Y-113.5
X191.0Y-115.0
X191.0Y-124.5
X191.0Y-126.0
X191.5Y-46.0
X191.5Y-47.5
X191.5Y-82.0
X191.5Y-85.0
X191.5Y-86.5
X192.0Y-58.0
X192.0Y-73.5
X192.0Y-75.0
X192.0Y-112.5
X192.0Y-114.0
X192.0Y-123.5
X192.0Y-125.0
X193.0Y-59.0
X193.0Y-77.5
X193.0Y-111.5
X193.0Y-113.0
X193.0Y-122.5
X193.0Y-124.0
X193.5Y-82.0
X193.5Y-85.0
X193.5Y-86.5
X194.0Y-46.0
X194.0Y-47.5
X194.0Y-60.0
X194.0Y-73.5
X194.0Y-75.0
X194.0Y-110.5
X194.0Y-112.0
X194.0Y-121.5
X194.0Y-123.0
X195.0Y-61.0
X195.0Y-77.5
X195.0Y-79.0
X195.0Y-109.5
X195.0Y-111.0
X195.0Y-120.5
X195.0Y-122.0
X195.5Y-46.0
X195.5Y-47.5
X195.5Y-82.0
X195.5Y-85.0
X195.5Y-86.5
X196.0Y-62.0
X196.0Y-73.5
X196.0Y-75.0
X196.0Y-108.5
X196.0Y-110.0
X196.0Y-119.5
X196.0Y-121.0
X197.0Y-46.0
X197.0Y-47.5
X197.0Y-63.5
X197.0Y-77.5
X197.0Y-79.0
X197.0Y-84.0
X197.0Y-85.5
X197.0Y-107.5
X197.0Y-109.0
X197.0Y-118.5
X197.0Y-120.0
X198.0Y-61.0
X198.0Y-64.5
X198.0Y-73.5
X198.0Y-75.0
X198.0Y-83.0
X198.0Y-84.5
X198.0Y-106.5
X198.0Y-108.0
X198.0Y-117.5
X198.0Y-119.0
X198.5Y-46.0
X198.5Y-47.5
X199.0Y-62.0
X199.0Y-65.5
X199.0Y-77.5
X199.0Y-79.0
X199.0Y-105.5
X199.0Y-107.0
X199.0Y-116.5
X199.0Y-118.0
X199.45Y-56.0
X199.5Y-83.0
X199.5Y-84.5
X200.0Y-46.0
X200.0Y-47.5
X200.0Y-63.0
X200.0Y-66.5
X200.0Y-73.5
X200.0Y-75.0
X200.0Y-104.5
X200.0Y-106.0
X200.0Y-115.5
X200.0Y-117.0
X200.5Y-84.0
X200.5Y-85.5
X201.0Y-64.0
X201.0Y-67.5
X201.0Y-77.5
X201.0Y-79.0
X201.0Y-103.5
X201.0Y-105.0
X201.0Y-114.5
X201.0Y-116.0
X201.5Y-46.0
X201.5Y-47.5
X201.5Y-85.0
X201.5Y-86.5
X202.0Y-65.0
X202.0Y-68.5
X202.0Y-73.5
X202.0Y-75.0
X202.0Y-102.5
X202.0Y-104.0
X202.0Y-113.5
X202.0Y-115.0
X202.5Y-58.0
X202.5Y-60.0
X202.5Y-62.0
X202.5Y-86.0
X203.0Y-46.0
X203.0Y-47.5
X203.0Y-66.0
X203.0Y-69.5
X203.0Y-77.5
X203.0Y-79.0
X203.0Y-82.0
X203.0Y-101.5
X203.0Y-103.0
X203.0Y-112.5
X203.0Y-114.0
X203.5Y-86.5
X203.5Y-88.0
X204.0Y-58.0
X204.0Y-60.0
X204.0Y-62.0
X204.0Y-64.0
X204.0Y-67.0
X204.0Y-70.5
X204.0Y-73.5
X204.0Y-75.0
X204.0Y-100.5
X204.0Y-102.0
X204.0Y-111.5
X204.0Y-113.0
X204.5Y-46.0
X204.5Y-47.5
X205.0Y-68.0
X205.0Y-71.5
X205.0Y-77.5
X205.0Y-79.0
X205.0Y-82.0
X205.0Y-83.5
X205.0Y-86.5
X205.0Y-88.0
X205.0Y-99.5
X205.0Y-101.0
X205.0Y-110.5
X205.0Y-112.0
X205.5Y-58.0
X205.5Y-60.0
X205.5Y-62.0
X205.5Y-64.0
X205.5Y-66.0
X206.0Y-46.0
X206.0Y-47.5
X206.0Y-69.0
X206.0Y-73.5
X206.0Y-75.0
X206.0Y-98.5
X206.0Y-100.0
X206.0Y-109.5
X206.0Y-111.0
X206.5Y-38.5
X206.5Y-40.0
X206.5Y-41.5
X206.5Y-43.0
X206.5Y-44.5
X206.5Y-86.5
X206.5Y-88.0
X207.0Y-58.0
X207.0Y-60.0
X207.0Y-62.0
X207.0Y-64.0
X207.0Y-66.0
X207.0Y-68.0
X207.0Y-70.0
X207.0Y-77.5
X207.0Y-79.0
X207.0Y-80.5
X207.0Y-82.0
X207.0Y-83.5
X207.0Y-97.5
X207.0Y-99.0
X207.0Y-108.5
X207.0Y-110.0
X207.5Y-37.5
X207.5Y-39.0
X208.0Y-75.0
X208.0Y-86.5
X208.0Y-88.0
X208.0Y-96.5
X208.0Y-98.0
X208.0Y-107.5
X208.0Y-109.0
X208.5Y-36.5
X208.5Y-38.0
X209.0Y-41.0
X209.0Y-43.0
X209.0Y-44.5
X209.0Y-59.012
X209.0Y-61.0
X209.0Y-63.0
X209.0Y-65.0
X209.0Y-67.0
X209.0Y-69.0
X209.0Y-71.5
X209.0Y-77.5
X209.0Y-79.0
X209.0Y-80.5
X209.0Y-82.0
X209.0Y-83.5
X209.0Y-95.5
X209.0Y-97.0
X209.0Y-106.5
X209.0Y-108.0
X209.15Y-51.05
X209.5Y-35.5
X209.5Y-37.0
X209.5Y-57.0
X209.5Y-86.5
X209.5Y-88.0
X210.0Y-40.0
X210.0Y-72.5
X210.0Y-94.5
X210.0Y-96.0
X210.0Y-107.0
X210.5Y-41.5
X210.5Y-43.0
X210.5Y-44.5
X210.5Y-59.012
X210.5Y-61.0
X210.5Y-63.0
X210.5Y-65.0
X210.5Y-67.0
X210.5Y-69.0
X210.5Y-71.5
X210.5Y-89.5
X210.5Y-91.0
X210.5Y-92.5
X211.0Y-39.0
X211.0Y-73.5
X211.0Y-79.0
X211.0Y-80.5
X211.0Y-82.0
X211.0Y-83.5
X211.0Y-86.5
X211.0Y-88.0
X211.0Y-93.5
X211.0Y-95.0
X211.5Y-40.5
X211.5Y-72.5
X212.0Y-61.0
X212.0Y-63.0
X212.0Y-65.0
X212.0Y-67.0
X212.0Y-69.0
X212.0Y-74.5
X212.0Y-89.5
X212.0Y-91.0
X212.0Y-92.5
X212.0Y-94.0
X212.35Y-53.5
X212.5Y-39.5
X212.5Y-41.0
X212.5Y-42.5
X212.5Y-44.0
X212.5Y-73.5
X212.5Y-86.5
X212.5Y-88.0
X213.0Y-75.5
X213.0Y-102.5
X213.5Y-63.0
X213.5Y-65.0
X213.5Y-67.0
X213.5Y-69.0
X213.5Y-74.5
X214.0Y-39.5
X214.0Y-41.0
X214.0Y-42.5
X214.0Y-44.0
X214.0Y-76.5
X214.0Y-101.5
X214.0Y-103.0
X214.5Y-75.5
X215.0Y-63.0
X215.0Y-65.0
X215.0Y-67.0
X215.0Y-69.0
X215.0Y-100.5
X215.0Y-102.0
X215.4Y-50.4
X215.5Y-76.5
X215.5Y-86.5
X215.5Y-88.0
X216.0Y-75.5
X216.0Y-99.5
X216.0Y-101.0
X216.5Y-65.0
X216.5Y-67.0
X216.5Y-69.0
X216.5Y-92.0
X216.81Y-50.89
X217.0Y-76.5
X217.0Y-86.5
X217.0Y-88.0
X217.0Y-98.5
X217.0Y-100.0
X217.5Y-75.5
X217.5Y-91.0
X218.0Y-67.0
X218.0Y-69.0
X218.0Y-85.5
X218.0Y-87.0
X218.0Y-97.5
X218.0Y-99.0
X218.5Y-76.5
X218.5Y-90.0
X218.9Y-52.0
X219.0Y-75.5
X219.0Y-84.5
X219.0Y-86.0
X219.0Y-96.5
X219.0Y-98.0
X219.175Y-50.175
X219.5Y-67.0
X219.5Y-69.0
X219.5Y-89.0
X220.0Y-76.5
X220.0Y-83.5
X220.0Y-85.0
X220.0Y-95.5
X220.0Y-97.0
X220.5Y-75.5
X220.5Y-88.0
X221.0Y-69.0
X221.0Y-82.5
X221.0Y-84.0
X221.0Y-94.5
X221.0Y-96.0
X221.5Y-76.5
X222.0Y-75.5
X222.0Y-88.0
X222.0Y-93.5
X222.0Y-95.0
X223.0Y-76.5
X223.0Y-92.5
X223.0Y-94.0
X223.5Y-75.5
X223.5Y-88.0
X224.0Y-93.0
X224.5Y-76.5
X224.5Y-92.0
X225.0Y-75.5
X225.0Y-88.0
X225.5Y-93.0
X226.0Y-76.5
X226.0Y-92.0
X226.5Y-75.5
X226.5Y-88.0
X227.0Y-93.0
X227.5Y-92.0
X233.5Y-92.5
X233.5Y-94.0
X234.0Y-53.5
X234.0Y-65.0
X234.0Y-67.0
X234.0Y-69.0
X234.5Y-91.5
X234.5Y-93.0
X235.0Y-74.0
X235.5Y-49.0
X235.5Y-90.5
X235.5Y-92.0
X236.0Y-73.0
X236.0Y-75.0
X236.0Y-77.0
X236.0Y-79.0
X236.0Y-81.0
X236.0Y-83.0
X236.0Y-85.0
X236.0Y-87.0
X236.0Y-89.0
X236.5Y-50.0
X237.0Y-90.5
X237.5Y-51.0
X237.5Y-53.0
X237.5Y-55.0
X237.5Y-57.0
X237.5Y-59.0
X237.5Y-61.0
X237.5Y-63.0
X237.5Y-65.0
X237.5Y-67.0
X237.5Y-69.0
X237.5Y-71.0
X237.5Y-73.0
X237.5Y-75.0
X237.5Y-77.0
X237.5Y-79.0
X237.5Y-81.0
X237.5Y-83.0
X237.5Y-85.0
X237.5Y-87.0
X237.5Y-89.0
T2
X172.37Y-80.455
X174.91Y-80.455
X177.45Y-80.455
X178.76Y-116.495
X178.76Y-119.035
X178.76Y-121.575
X178.76Y-124.115
X178.76Y-126.655
X178.76Y-129.195
X178.76Y-131.735
X178.76Y-134.275
X179.99Y-80.455
X182.53Y-80.455
X182.53Y-91.145
X193.725Y-80.455
X196.265Y-80.455
X198.805Y-80.455
X201.345Y-80.455
X203.885Y-80.455
X203.885Y-91.145
X213.05Y-121.575
X213.05Y-124.115
X213.05Y-126.655
X213.05Y-129.195
X213.05Y-131.735
X213.05Y-134.275
X213.05Y-136.815
T3
X161.085Y-52.75
X161.085Y-55.29
X161.085Y-57.83
X161.085Y-60.37
X161.085Y-62.91
X161.085Y-65.45
X161.085Y-70.53
X161.085Y-73.07
X161.085Y-75.61
X161.085Y-78.15
X161.085Y-80.69
X161.085Y-85.77
X161.085Y-88.31
X161.085Y-90.85
X161.085Y-93.39
X161.085Y-95.93
X161.085Y-98.47
X161.085Y-101.01
X161.085Y-103.55
X161.085Y-106.09
X161.085Y-108.63
X161.085Y-111.17
X161.085Y-113.71
X163.625Y-52.75
X163.625Y-55.29
X163.625Y-57.83
X163.625Y-60.37
X163.625Y-62.91
X163.625Y-65.45
X163.625Y-70.53
X163.625Y-73.07
X163.625Y-75.61
X163.625Y-78.15
X163.625Y-80.69
X163.625Y-85.77
X163.625Y-88.31
X163.625Y-90.85
X163.625Y-93.39
X163.625Y-95.93
X163.625Y-98.47
X163.625Y-101.01
X163.625Y-103.55
X163.625Y-106.09
X163.625Y-108.63
X163.625Y-111.17
X163.625Y-113.71
X173.235Y-60.25
X173.373Y-50.0
X173.373Y-55.09
X173.373Y-65.5
X175.775Y-60.25
X175.912Y-50.0
X175.912Y-55.09
X175.912Y-65.5
X214.063Y-80.793
X216.603Y-80.793
X219.143Y-80.793
X221.683Y-80.793
X229.085Y-52.75
X229.085Y-55.29
X229.085Y-57.83
X229.085Y-60.37
X229.085Y-62.91
X229.085Y-65.45
X229.085Y-67.99
X229.085Y-70.53
X229.085Y-73.07
X229.085Y-75.61
X229.085Y-78.15
X229.085Y-80.69
X229.085Y-83.23
X229.085Y-85.77
X229.085Y-88.31
X229.085Y-93.39
X229.085Y-95.93
X229.085Y-98.47
X229.085Y-101.01
X229.085Y-103.55
X229.085Y-106.09
X229.085Y-108.63
X229.085Y-111.17
X229.085Y-113.71
X231.625Y-52.75
X231.625Y-55.29
X231.625Y-57.83
X231.625Y-60.37
X231.625Y-62.91
X231.625Y-65.45
X231.625Y-67.99
X231.625Y-70.53
X231.625Y-73.07
X231.625Y-75.61
X231.625Y-78.15
X231.625Y-80.69
X231.625Y-83.23
X231.625Y-85.77
X231.625Y-88.31
X231.625Y-93.39
X231.625Y-95.93
X231.625Y-98.47
X231.625Y-101.01
X231.625Y-103.55
X231.625Y-106.09
X231.625Y-108.63
X231.625Y-111.17
X231.625Y-113.71
T4
X212.9Y-30.25
X212.9Y-35.75
X217.1Y-30.25
X217.1Y-35.75
X224.25Y-40.4
X224.25Y-44.6
X229.75Y-40.4
X229.75Y-44.6
T5
X162.5Y-37.5
X162.5Y-42.5
X185.0Y-30.0
X185.0Y-35.0
X195.0Y-30.0
X195.0Y-35.0
X202.5Y-30.0
X202.5Y-35.0
T6
X172.5Y-31.5
X172.5Y-38.7
M30
